<?xml version="1.0" encoding="utf-8"?>
<!-- Generator: Adobe Illustrator 19.1.0, SVG Export Plug-In . SVG Version: 6.00 Build 0)  -->
<!DOCTYPE svg PUBLIC "-//W3C//DTD SVG 1.1//EN" "http://www.w3.org/Graphics/SVG/1.1/DTD/svg11.dtd">
<svg version="1.1" id="Layer_1" xmlns="http://www.w3.org/2000/svg" xmlns:xlink="http://www.w3.org/1999/xlink" x="0px" y="0px"
	 viewBox="0 0 184.9 157.6" enable-background="new 0 0 184.9 157.6" xml:space="preserve">
<g>
	<g>
		<path fill="#FFFFFF" d="M104.5,150.9c0,2.8-2.2,4.4-5.1,4.4l-56.9,2.2c-31.9,1.3-45.2-11.7-42.1-40.8L12.8,8.6
			c0.3-3.2,2.5-5.1,5.7-5.7l24.7-3.5c3.2-0.6,5.4,1.3,5.1,4.4l-12,103.7c-1.9,13.6,4.1,19.6,19,19l48.1-2.2c2.8,0,4.7,2.2,4.1,5.1
			L104.5,150.9z M78.9,10.5c0.3-2.8,2.2-4.7,5.1-5.1l25.6-2.5c2.8-0.3,4.7,1.3,4.4,4.1l-6.6,59.1l37-2.2l6-54.7
			c0.3-3.5,2.8-5.4,6.3-5.7L179.8,0c2.8-0.3,5.4,1.3,5.1,4.1L169,150.6c-0.3,2.8-2.5,4.4-5.4,4.4l-23.1,0.6c-2.8,0-5.1-1.6-4.7-4.4
			l6-56.6l-58.5,3.2c-8.9,0.9-13.3-3.2-12.3-12L78.9,10.5z"/>
	</g>
</g>
</svg>
